{
    "asset" : {
        "generator" : "Khronos glTF Blender I/O v1.6.16",
        "version" : "2.0"
    },
    "scene" : 0,
    "scenes" : [
        {
            "name" : "Scene",
            "nodes" : [
                0,
                1,
                2,
                3,
                4,
                5,
                6,
                7,
                8,
                9,
                10,
                11
            ]
        }
    ],
    "nodes" : [
        {
            "name" : "Light",
            "rotation" : [
                0.16907575726509094,
                0.7558803558349609,
                -0.27217137813568115,
                0.570947527885437
            ],
            "translation" : [
                4.076245307922363,
                5.903861999511719,
                -1.0054539442062378
            ]
        },
        {
            "name" : "Camera",
            "rotation" : [
                0.6751883029937744,
                -0.047782983630895615,
                0.04390745237469673,
                0.7347854375839233
            ],
            "translation" : [
                -1.0146478414535522,
                1.8802272081375122,
                10.862682342529297
            ]
        },
        {
            "mesh" : 0,
            "name" : "Plane",
            "translation" : [
                0.048274509608745575,
                0.9541614651679993,
                0
            ]
        },
        {
            "mesh" : 1,
            "name" : "Circle.003",
            "rotation" : [
                -0.05561574175953865,
                0.0660015121102333,
                0.04583847522735596,
                0.9952133297920227
            ],
            "translation" : [
                -0.45540010929107666,
                0.9484997391700745,
                -0.40407299995422363
            ]
        },
        {
            "mesh" : 2,
            "name" : "Circle.004",
            "rotation" : [
                -0.053497813642024994,
                -0.08112145960330963,
                0.039243727922439575,
                -0.9944934248924255
            ],
            "translation" : [
                0.16975927352905273,
                1.0097284317016602,
                0.3992873430252075
            ]
        },
        {
            "mesh" : 3,
            "name" : "Circle.006",
            "rotation" : [
                0.1383480280637741,
                -0.09878965467214584,
                0.10699856281280518,
                -0.9796182513237
            ],
            "translation" : [
                0.44548702239990234,
                1.0166594982147217,
                -0.42119812965393066
            ]
        },
        {
            "name" : "Area",
            "rotation" : [
                -0.22025057673454285,
                -0.5821666121482849,
                -0.5307847857475281,
                -0.5751862525939941
            ],
            "scale" : [
                1.6795815229415894,
                1.6795815229415894,
                1.6795815229415894
            ],
            "translation" : [
                -2.9426164627075195,
                3.7178573608398438,
                7.386683464050293
            ]
        },
        {
            "name" : "Area.001",
            "rotation" : [
                -0.35609400272369385,
                -0.7164698839187622,
                -0.45104309916496277,
                -0.39550989866256714
            ],
            "scale" : [
                1.6795815229415894,
                1.6795815229415894,
                1.6795815229415894
            ],
            "translation" : [
                1.1419167518615723,
                3.7178573608398438,
                7.386683464050293
            ]
        },
        {
            "mesh" : 4,
            "name" : "Circle"
        },
        {
            "mesh" : 5,
            "name" : "Circle.001",
            "translation" : [
                0,
                0.6099406480789185,
                0
            ]
        },
        {
            "mesh" : 6,
            "name" : "Circle.002",
            "rotation" : [
                0,
                -0.4246412217617035,
                0,
                0.9053617119789124
            ],
            "translation" : [
                0,
                0.6963039040565491,
                0
            ]
        },
        {
            "mesh" : 7,
            "name" : "Circle.005",
            "translation" : [
                0,
                1.6483529806137085,
                0
            ]
        }
    ],
    "materials" : [
        {
            "doubleSided" : true,
            "name" : "cheese",
            "pbrMetallicRoughness" : {
                "baseColorFactor" : [
                    1,
                    0.5,
                    0,
                    1
                ],
                "metallicFactor" : 0,
                "roughnessFactor" : 0.40909096598625183
            }
        },
        {
            "doubleSided" : true,
            "name" : "tomato",
            "pbrMetallicRoughness" : {
                "metallicFactor" : 0,
                "roughnessFactor" : 0.5
            }
        },
        {
            "doubleSided" : true,
            "name" : "bread bun",
            "pbrMetallicRoughness" : {
                "metallicFactor" : 0,
                "roughnessFactor" : 0.46060606837272644
            }
        },
        {
            "doubleSided" : true,
            "name" : "salad",
            "pbrMetallicRoughness" : {
                "metallicFactor" : 0,
                "roughnessFactor" : 0.4060606062412262
            }
        },
        {
            "doubleSided" : true,
            "name" : "meat",
            "pbrMetallicRoughness" : {
                "baseColorFactor" : [
                    0.1415606439113617,
                    0.014930037781596184,
                    0,
                    1
                ],
                "metallicFactor" : 0,
                "roughnessFactor" : 0.5
            }
        },
        {
            "doubleSided" : true,
            "name" : "bread buntop",
            "pbrMetallicRoughness" : {
                "metallicFactor" : 0,
                "roughnessFactor" : 0.5
            }
        }
    ],
    "meshes" : [
        {
            "name" : "Plane.002",
            "primitives" : [
                {
                    "attributes" : {
                        "POSITION" : 0,
                        "NORMAL" : 1,
                        "TEXCOORD_0" : 2
                    },
                    "indices" : 3,
                    "material" : 0
                }
            ]
        },
        {
            "name" : "Circle.003",
            "primitives" : [
                {
                    "attributes" : {
                        "POSITION" : 4,
                        "NORMAL" : 5,
                        "TEXCOORD_0" : 6
                    },
                    "indices" : 7,
                    "material" : 1
                }
            ]
        },
        {
            "name" : "Circle.004",
            "primitives" : [
                {
                    "attributes" : {
                        "POSITION" : 8,
                        "NORMAL" : 9,
                        "TEXCOORD_0" : 10,
                        "COLOR_0" : 11
                    },
                    "indices" : 12,
                    "material" : 1
                }
            ]
        },
        {
            "name" : "Circle.006",
            "primitives" : [
                {
                    "attributes" : {
                        "POSITION" : 13,
                        "NORMAL" : 14,
                        "TEXCOORD_0" : 15,
                        "COLOR_0" : 16
                    },
                    "indices" : 7,
                    "material" : 1
                }
            ]
        },
        {
            "name" : "Circle",
            "primitives" : [
                {
                    "attributes" : {
                        "POSITION" : 17,
                        "NORMAL" : 18,
                        "TEXCOORD_0" : 19
                    },
                    "indices" : 20,
                    "material" : 2
                }
            ]
        },
        {
            "name" : "Circle.001",
            "primitives" : [
                {
                    "attributes" : {
                        "POSITION" : 21,
                        "NORMAL" : 22,
                        "TEXCOORD_0" : 23
                    },
                    "indices" : 24,
                    "material" : 3
                }
            ]
        },
        {
            "name" : "Circle.002",
            "primitives" : [
                {
                    "attributes" : {
                        "POSITION" : 25,
                        "NORMAL" : 26,
                        "TEXCOORD_0" : 27
                    },
                    "indices" : 28,
                    "material" : 4
                }
            ]
        },
        {
            "name" : "Circle.007",
            "primitives" : [
                {
                    "attributes" : {
                        "POSITION" : 29,
                        "NORMAL" : 30,
                        "TEXCOORD_0" : 31
                    },
                    "indices" : 20,
                    "material" : 5
                }
            ]
        }
    ],
    "accessors" : [
        {
            "bufferView" : 0,
            "componentType" : 5126,
            "count" : 64,
            "max" : [
                1.0001018047332764,
                0.2864907681941986,
                1
            ],
            "min" : [
                -1,
                -0.19274255633354187,
                -1
            ],
            "type" : "VEC3"
        },
        {
            "bufferView" : 1,
            "componentType" : 5126,
            "count" : 64,
            "type" : "VEC3"
        },
        {
            "bufferView" : 2,
            "componentType" : 5126,
            "count" : 64,
            "type" : "VEC2"
        },
        {
            "bufferView" : 3,
            "componentType" : 5123,
            "count" : 294,
            "type" : "SCALAR"
        },
        {
            "bufferView" : 4,
            "componentType" : 5126,
            "count" : 160,
            "max" : [
                0.38718485832214355,
                0.11347530782222748,
                0.38718485832214355
            ],
            "min" : [
                -0.38718485832214355,
                0,
                -0.38718485832214355
            ],
            "type" : "VEC3"
        },
        {
            "bufferView" : 5,
            "componentType" : 5126,
            "count" : 160,
            "type" : "VEC3"
        },
        {
            "bufferView" : 6,
            "componentType" : 5126,
            "count" : 160,
            "type" : "VEC2"
        },
        {
            "bufferView" : 7,
            "componentType" : 5123,
            "count" : 948,
            "type" : "SCALAR"
        },
        {
            "bufferView" : 8,
            "componentType" : 5126,
            "count" : 2434,
            "max" : [
                0.41212064027786255,
                0.12392790615558624,
                0.41212064027786255
            ],
            "min" : [
                -0.41212064027786255,
                3.421311944862282e-08,
                -0.41212064027786255
            ],
            "type" : "VEC3"
        },
        {
            "bufferView" : 9,
            "componentType" : 5126,
            "count" : 2434,
            "type" : "VEC3"
        },
        {
            "bufferView" : 10,
            "componentType" : 5126,
            "count" : 2434,
            "type" : "VEC2"
        },
        {
            "bufferView" : 11,
            "componentType" : 5123,
            "count" : 2434,
            "normalized" : true,
            "type" : "VEC4"
        },
        {
            "bufferView" : 12,
            "componentType" : 5123,
            "count" : 14592,
            "type" : "SCALAR"
        },
        {
            "bufferView" : 13,
            "componentType" : 5126,
            "count" : 160,
            "max" : [
                0.419037401676178,
                0.12281059473752975,
                0.41903746128082275
            ],
            "min" : [
                -0.419037401676178,
                0,
                -0.41903746128082275
            ],
            "type" : "VEC3"
        },
        {
            "bufferView" : 14,
            "componentType" : 5126,
            "count" : 160,
            "type" : "VEC3"
        },
        {
            "bufferView" : 15,
            "componentType" : 5126,
            "count" : 160,
            "type" : "VEC2"
        },
        {
            "bufferView" : 16,
            "componentType" : 5123,
            "count" : 160,
            "normalized" : true,
            "type" : "VEC4"
        },
        {
            "bufferView" : 17,
            "componentType" : 5126,
            "count" : 80,
            "max" : [
                1,
                0.6221705675125122,
                1
            ],
            "min" : [
                -1,
                0,
                -1
            ],
            "type" : "VEC3"
        },
        {
            "bufferView" : 18,
            "componentType" : 5126,
            "count" : 80,
            "type" : "VEC3"
        },
        {
            "bufferView" : 19,
            "componentType" : 5126,
            "count" : 80,
            "type" : "VEC2"
        },
        {
            "bufferView" : 20,
            "componentType" : 5123,
            "count" : 468,
            "type" : "SCALAR"
        },
        {
            "bufferView" : 21,
            "componentType" : 5126,
            "count" : 25,
            "max" : [
                1,
                0.23221471905708313,
                1
            ],
            "min" : [
                -1,
                -0.050881173461675644,
                -1
            ],
            "type" : "VEC3"
        },
        {
            "bufferView" : 22,
            "componentType" : 5126,
            "count" : 25,
            "type" : "VEC3"
        },
        {
            "bufferView" : 23,
            "componentType" : 5126,
            "count" : 25,
            "type" : "VEC2"
        },
        {
            "bufferView" : 24,
            "componentType" : 5123,
            "count" : 96,
            "type" : "SCALAR"
        },
        {
            "bufferView" : 25,
            "componentType" : 5126,
            "count" : 80,
            "max" : [
                1,
                0.24079832434654236,
                1
            ],
            "min" : [
                -1,
                -0.20933540165424347,
                -1
            ],
            "type" : "VEC3"
        },
        {
            "bufferView" : 26,
            "componentType" : 5126,
            "count" : 80,
            "type" : "VEC3"
        },
        {
            "bufferView" : 27,
            "componentType" : 5126,
            "count" : 80,
            "type" : "VEC2"
        },
        {
            "bufferView" : 28,
            "componentType" : 5123,
            "count" : 468,
            "type" : "SCALAR"
        },
        {
            "bufferView" : 29,
            "componentType" : 5126,
            "count" : 80,
            "max" : [
                1,
                0.30146631598472595,
                1
            ],
            "min" : [
                -1,
                -0.6221705675125122,
                -1
            ],
            "type" : "VEC3"
        },
        {
            "bufferView" : 30,
            "componentType" : 5126,
            "count" : 80,
            "type" : "VEC3"
        },
        {
            "bufferView" : 31,
            "componentType" : 5126,
            "count" : 80,
            "type" : "VEC2"
        }
    ],
    "bufferViews" : [
        {
            "buffer" : 0,
            "byteLength" : 768,
            "byteOffset" : 0
        },
        {
            "buffer" : 0,
            "byteLength" : 768,
            "byteOffset" : 768
        },
        {
            "buffer" : 0,
            "byteLength" : 512,
            "byteOffset" : 1536
        },
        {
            "buffer" : 0,
            "byteLength" : 588,
            "byteOffset" : 2048
        },
        {
            "buffer" : 0,
            "byteLength" : 1920,
            "byteOffset" : 2636
        },
        {
            "buffer" : 0,
            "byteLength" : 1920,
            "byteOffset" : 4556
        },
        {
            "buffer" : 0,
            "byteLength" : 1280,
            "byteOffset" : 6476
        },
        {
            "buffer" : 0,
            "byteLength" : 1896,
            "byteOffset" : 7756
        },
        {
            "buffer" : 0,
            "byteLength" : 29208,
            "byteOffset" : 9652
        },
        {
            "buffer" : 0,
            "byteLength" : 29208,
            "byteOffset" : 38860
        },
        {
            "buffer" : 0,
            "byteLength" : 19472,
            "byteOffset" : 68068
        },
        {
            "buffer" : 0,
            "byteLength" : 19472,
            "byteOffset" : 87540
        },
        {
            "buffer" : 0,
            "byteLength" : 29184,
            "byteOffset" : 107012
        },
        {
            "buffer" : 0,
            "byteLength" : 1920,
            "byteOffset" : 136196
        },
        {
            "buffer" : 0,
            "byteLength" : 1920,
            "byteOffset" : 138116
        },
        {
            "buffer" : 0,
            "byteLength" : 1280,
            "byteOffset" : 140036
        },
        {
            "buffer" : 0,
            "byteLength" : 1280,
            "byteOffset" : 141316
        },
        {
            "buffer" : 0,
            "byteLength" : 960,
            "byteOffset" : 142596
        },
        {
            "buffer" : 0,
            "byteLength" : 960,
            "byteOffset" : 143556
        },
        {
            "buffer" : 0,
            "byteLength" : 640,
            "byteOffset" : 144516
        },
        {
            "buffer" : 0,
            "byteLength" : 936,
            "byteOffset" : 145156
        },
        {
            "buffer" : 0,
            "byteLength" : 300,
            "byteOffset" : 146092
        },
        {
            "buffer" : 0,
            "byteLength" : 300,
            "byteOffset" : 146392
        },
        {
            "buffer" : 0,
            "byteLength" : 200,
            "byteOffset" : 146692
        },
        {
            "buffer" : 0,
            "byteLength" : 192,
            "byteOffset" : 146892
        },
        {
            "buffer" : 0,
            "byteLength" : 960,
            "byteOffset" : 147084
        },
        {
            "buffer" : 0,
            "byteLength" : 960,
            "byteOffset" : 148044
        },
        {
            "buffer" : 0,
            "byteLength" : 640,
            "byteOffset" : 149004
        },
        {
            "buffer" : 0,
            "byteLength" : 936,
            "byteOffset" : 149644
        },
        {
            "buffer" : 0,
            "byteLength" : 960,
            "byteOffset" : 150580
        },
        {
            "buffer" : 0,
            "byteLength" : 960,
            "byteOffset" : 151540
        },
        {
            "buffer" : 0,
            "byteLength" : 640,
            "byteOffset" : 152500
        }
    ],
    "buffers" : [
        {
            "byteLength" : 153140,
            "uri" : "data:application/octet-stream;base64,"
        }
    ]
}
